# xmcd CD database file
#
# Track frame offsets:
#	150
#	12577
#	29170
#	45747
#	62574
#	70668
#	84719
#	98704
#	114656
#	122242
#	133103
#	150649
#	160375
#	178141
#	190242
#	204206
#
# Disc length: 3169 seconds
#
# Revision: 1
# Processed by: cddbd v1.5.2PL0 Copyright (c) Steve Scherf et al.
# Submitted via: CDex 2.14
#
DISCID=e30c5f10
DTITLE=Valeri Dimchev Trio - The Bulgarian Tamboura
DYEAR=2001
DGENRE=World
TTITLE0=Ruchenitsa
TTITLE1=Macedonka
TTITLE2=Jovano,  Jovanke
TTITLE3=Shari Moma
TTITLE4=Gizdava devoikja
TTITLE5=Lale li si, zjumbjul li si
TTITLE6=Katina kopanitsa
TTITLE7=Malashevsko horo
TTITLE8=Free
TTITLE9=The tamboura
TTITLE10=Gradi moma
TTITLE11=Koidano nevesto
TTITLE12=At the slide
TTITLE13=Barefoot ruchenitsa
TTITLE14=Trakija melodies
TTITLE15=The lonely man
EXTD=YEAR: 2001
EXTT0=
EXTT1=
EXTT2=
EXTT3=
EXTT4=
EXTT5=
EXTT6=
EXTT7=
EXTT8=
EXTT9=
EXTT10=
EXTT11=
EXTT12=
EXTT13=
EXTT14=
EXTT15=
PLAYORDER=
